<svg xmlns="http://www.w3.org/2000/svg" viewBox="0 0 32 32" width="32" height="32" shape-rendering="crispEdges">
  
  
  <rect x="13" y="2" width="8" height="8" fill="#0B7268"></rect>
  
  <rect x="12" y="10" width="2" height="2" fill="#1D242C"></rect>
  <rect x="10" y="12" width="2" height="2" fill="#1D242C"></rect>
  <rect x="8" y="14" width="2" height="2" fill="#1D242C"></rect>
  <rect x="6" y="16" width="2" height="2" fill="#1D242C"></rect>
  <rect x="20" y="10" width="2" height="2" fill="#1D242C"></rect>
  <rect x="22" y="12" width="2" height="2" fill="#1D242C"></rect>
  <rect x="24" y="14" width="2" height="2" fill="#1D242C"></rect>
  
  <rect x="13" y="24" width="2" height="2" fill="#8B94A0"></rect>
  <rect x="17" y="24" width="2" height="2" fill="#8B94A0"></rect>
  
  <path fill="#1D242C" d="M3 18h8v8H3v-8Zm2 2v4h4v-4H5Z"></path>
  <path fill="#1D242C" d="M21 18h8v8h-8v-8Zm2 2v4h4v-4h-4Z"></path>
</svg>